<mxfile host="app.diagrams.net" modified="2023-11-13T09:49:46.904Z" agent="Mozilla/5.0 (Windows NT 10.0; Win64; x64) AppleWebKit/537.36 (KHTML, like Gecko) Chrome/119.0.0.0 Safari/537.36" etag="LSk3CIYUT9qtuhg1OcQs" version="22.1.0" type="github">
  <diagram id="C5RBs43oDa-KdzZeNtuy" name="Page-1">
    <mxGraphModel dx="1750" dy="890" grid="1" gridSize="10" guides="1" tooltips="1" connect="1" arrows="1" fold="1" page="1" pageScale="1" pageWidth="1654" pageHeight="2336" math="0" shadow="0">
      <root>
        <mxCell id="WIyWlLk6GJQsqaUBKTNV-0" />
        <mxCell id="WIyWlLk6GJQsqaUBKTNV-1" parent="WIyWlLk6GJQsqaUBKTNV-0" />
        <mxCell id="jLUfQ_ZdSW11AOpu9WSQ-0" value="Karten" style="swimlane;fontStyle=1;align=center;verticalAlign=top;childLayout=stackLayout;horizontal=1;startSize=26;horizontalStack=0;resizeParent=1;resizeParentMax=0;resizeLast=0;collapsible=1;marginBottom=0;whiteSpace=wrap;html=1;" parent="WIyWlLk6GJQsqaUBKTNV-1" vertex="1">
          <mxGeometry x="1160" y="1674" width="160" height="88" as="geometry" />
        </mxCell>
        <mxCell id="jLUfQ_ZdSW11AOpu9WSQ-1" value="+ iD: type&lt;br&gt;" style="text;strokeColor=none;fillColor=none;align=left;verticalAlign=top;spacingLeft=4;spacingRight=4;overflow=hidden;rotatable=0;points=[[0,0.5],[1,0.5]];portConstraint=eastwest;whiteSpace=wrap;html=1;" parent="jLUfQ_ZdSW11AOpu9WSQ-0" vertex="1">
          <mxGeometry y="26" width="160" height="54" as="geometry" />
        </mxCell>
        <mxCell id="jLUfQ_ZdSW11AOpu9WSQ-2" value="" style="line;strokeWidth=1;fillColor=none;align=left;verticalAlign=middle;spacingTop=-1;spacingLeft=3;spacingRight=3;rotatable=0;labelPosition=right;points=[];portConstraint=eastwest;strokeColor=inherit;" parent="jLUfQ_ZdSW11AOpu9WSQ-0" vertex="1">
          <mxGeometry y="80" width="160" height="8" as="geometry" />
        </mxCell>
        <mxCell id="jLUfQ_ZdSW11AOpu9WSQ-4" value="Entwicklungskarten" style="swimlane;fontStyle=1;align=center;verticalAlign=top;childLayout=stackLayout;horizontal=1;startSize=26;horizontalStack=0;resizeParent=1;resizeParentMax=0;resizeLast=0;collapsible=1;marginBottom=0;whiteSpace=wrap;html=1;" parent="WIyWlLk6GJQsqaUBKTNV-1" vertex="1">
          <mxGeometry x="990" y="1814" width="160" height="60" as="geometry" />
        </mxCell>
        <mxCell id="jLUfQ_ZdSW11AOpu9WSQ-5" value="+art: Entwicklungskartenart" style="text;strokeColor=none;fillColor=none;align=left;verticalAlign=top;spacingLeft=4;spacingRight=4;overflow=hidden;rotatable=0;points=[[0,0.5],[1,0.5]];portConstraint=eastwest;whiteSpace=wrap;html=1;" parent="jLUfQ_ZdSW11AOpu9WSQ-4" vertex="1">
          <mxGeometry y="26" width="160" height="26" as="geometry" />
        </mxCell>
        <mxCell id="jLUfQ_ZdSW11AOpu9WSQ-6" value="" style="line;strokeWidth=1;fillColor=none;align=left;verticalAlign=middle;spacingTop=-1;spacingLeft=3;spacingRight=3;rotatable=0;labelPosition=right;points=[];portConstraint=eastwest;strokeColor=inherit;" parent="jLUfQ_ZdSW11AOpu9WSQ-4" vertex="1">
          <mxGeometry y="52" width="160" height="8" as="geometry" />
        </mxCell>
        <mxCell id="-h1EHQiqOP35WWRG1Ztw-14" style="edgeStyle=orthogonalEdgeStyle;rounded=0;orthogonalLoop=1;jettySize=auto;html=1;exitX=0.25;exitY=0;exitDx=0;exitDy=0;entryX=0.75;entryY=1;entryDx=0;entryDy=0;" parent="WIyWlLk6GJQsqaUBKTNV-1" source="jLUfQ_ZdSW11AOpu9WSQ-8" target="jLUfQ_ZdSW11AOpu9WSQ-0" edge="1">
          <mxGeometry relative="1" as="geometry" />
        </mxCell>
        <mxCell id="4GnOWeXe9yP3JWXDy1YX-7" style="edgeStyle=orthogonalEdgeStyle;rounded=0;orthogonalLoop=1;jettySize=auto;html=1;exitX=0.25;exitY=1;exitDx=0;exitDy=0;endArrow=none;endFill=0;" edge="1" parent="WIyWlLk6GJQsqaUBKTNV-1" source="jLUfQ_ZdSW11AOpu9WSQ-8">
          <mxGeometry relative="1" as="geometry">
            <mxPoint x="950" y="1370" as="targetPoint" />
            <Array as="points">
              <mxPoint x="1410" y="1894" />
              <mxPoint x="960" y="1894" />
              <mxPoint x="960" y="1370" />
            </Array>
          </mxGeometry>
        </mxCell>
        <mxCell id="jLUfQ_ZdSW11AOpu9WSQ-8" value="Rohstoffkarten" style="swimlane;fontStyle=1;align=center;verticalAlign=top;childLayout=stackLayout;horizontal=1;startSize=26;horizontalStack=0;resizeParent=1;resizeParentMax=0;resizeLast=0;collapsible=1;marginBottom=0;whiteSpace=wrap;html=1;" parent="WIyWlLk6GJQsqaUBKTNV-1" vertex="1">
          <mxGeometry x="1370" y="1814" width="160" height="60" as="geometry" />
        </mxCell>
        <mxCell id="jLUfQ_ZdSW11AOpu9WSQ-9" value="+ art: Rohstoffkartenart" style="text;strokeColor=none;fillColor=none;align=left;verticalAlign=top;spacingLeft=4;spacingRight=4;overflow=hidden;rotatable=0;points=[[0,0.5],[1,0.5]];portConstraint=eastwest;whiteSpace=wrap;html=1;" parent="jLUfQ_ZdSW11AOpu9WSQ-8" vertex="1">
          <mxGeometry y="26" width="160" height="26" as="geometry" />
        </mxCell>
        <mxCell id="jLUfQ_ZdSW11AOpu9WSQ-10" value="" style="line;strokeWidth=1;fillColor=none;align=left;verticalAlign=middle;spacingTop=-1;spacingLeft=3;spacingRight=3;rotatable=0;labelPosition=right;points=[];portConstraint=eastwest;strokeColor=inherit;" parent="jLUfQ_ZdSW11AOpu9WSQ-8" vertex="1">
          <mxGeometry y="52" width="160" height="8" as="geometry" />
        </mxCell>
        <mxCell id="pc8HrFXufxrGeK1W2qgo-5" style="edgeStyle=orthogonalEdgeStyle;rounded=0;orthogonalLoop=1;jettySize=auto;html=1;exitX=1;exitY=0;exitDx=0;exitDy=0;endArrow=none;endFill=0;entryX=0.281;entryY=1.014;entryDx=0;entryDy=0;entryPerimeter=0;" parent="WIyWlLk6GJQsqaUBKTNV-1" source="jLUfQ_ZdSW11AOpu9WSQ-18" target="pc8HrFXufxrGeK1W2qgo-3" edge="1">
          <mxGeometry relative="1" as="geometry">
            <mxPoint x="1340" y="1280" as="targetPoint" />
            <Array as="points">
              <mxPoint x="1340" y="1274" />
              <mxPoint x="1335" y="1274" />
            </Array>
          </mxGeometry>
        </mxCell>
        <mxCell id="jLUfQ_ZdSW11AOpu9WSQ-18" value="&lt;p style=&quot;margin:0px;margin-top:4px;text-align:center;&quot;&gt;&lt;i&gt;&amp;lt;&amp;lt;Spiel&amp;gt;&amp;gt;&lt;/i&gt;&lt;br&gt;&lt;b&gt;Sieder von Catan&lt;/b&gt;&lt;/p&gt;&lt;hr size=&quot;1&quot;&gt;&lt;p style=&quot;margin:0px;margin-left:4px;&quot;&gt;+ spielrunde: int&lt;br&gt;&lt;br&gt;&lt;/p&gt;&lt;hr size=&quot;1&quot;&gt;&lt;p style=&quot;margin:0px;margin-left:4px;&quot;&gt;&lt;br&gt;&lt;/p&gt;" style="verticalAlign=top;align=left;overflow=fill;fontSize=12;fontFamily=Helvetica;html=1;whiteSpace=wrap;fillColor=#f8cecc;strokeColor=#b85450;" parent="WIyWlLk6GJQsqaUBKTNV-1" vertex="1">
          <mxGeometry x="1150" y="1390" width="190" height="110" as="geometry" />
        </mxCell>
        <mxCell id="jLUfQ_ZdSW11AOpu9WSQ-26" value="" style="endArrow=none;html=1;edgeStyle=orthogonalEdgeStyle;rounded=0;entryX=0.5;entryY=1;entryDx=0;entryDy=0;" parent="WIyWlLk6GJQsqaUBKTNV-1" target="jLUfQ_ZdSW11AOpu9WSQ-18" edge="1">
          <mxGeometry relative="1" as="geometry">
            <mxPoint x="1220" y="1674" as="sourcePoint" />
            <mxPoint x="1380" y="1674" as="targetPoint" />
          </mxGeometry>
        </mxCell>
        <mxCell id="-h1EHQiqOP35WWRG1Ztw-24" style="edgeStyle=orthogonalEdgeStyle;rounded=0;orthogonalLoop=1;jettySize=auto;html=1;exitX=0.5;exitY=0;exitDx=0;exitDy=0;entryX=0;entryY=0.5;entryDx=0;entryDy=0;endArrow=none;endFill=0;" parent="WIyWlLk6GJQsqaUBKTNV-1" source="jLUfQ_ZdSW11AOpu9WSQ-68" target="-h1EHQiqOP35WWRG1Ztw-20" edge="1">
          <mxGeometry relative="1" as="geometry" />
        </mxCell>
        <mxCell id="-h1EHQiqOP35WWRG1Ztw-32" style="edgeStyle=orthogonalEdgeStyle;rounded=0;orthogonalLoop=1;jettySize=auto;html=1;exitX=0.25;exitY=0;exitDx=0;exitDy=0;entryX=0.25;entryY=0;entryDx=0;entryDy=0;endArrow=none;endFill=0;" parent="WIyWlLk6GJQsqaUBKTNV-1" source="jLUfQ_ZdSW11AOpu9WSQ-68" target="pc8HrFXufxrGeK1W2qgo-9" edge="1">
          <mxGeometry relative="1" as="geometry" />
        </mxCell>
        <mxCell id="jLUfQ_ZdSW11AOpu9WSQ-68" value="&lt;p style=&quot;margin:0px;margin-top:4px;text-align:center;&quot;&gt;&lt;i&gt;&amp;lt;&amp;lt;Spielfigur&amp;gt;&amp;gt;&lt;/i&gt;&lt;br&gt;&lt;b&gt;Spielfigur&lt;/b&gt;&lt;/p&gt;&lt;hr size=&quot;1&quot;&gt;&lt;p style=&quot;margin:0px;margin-left:4px;&quot;&gt;+ farbe: string&lt;br&gt;+ Kosten: string&lt;/p&gt;&lt;p style=&quot;margin:0px;margin-left:4px;&quot;&gt;+ art: spielfigurart&lt;/p&gt;" style="verticalAlign=top;align=left;overflow=fill;fontSize=12;fontFamily=Helvetica;html=1;whiteSpace=wrap;" parent="WIyWlLk6GJQsqaUBKTNV-1" vertex="1">
          <mxGeometry x="620" y="1440" width="190" height="100" as="geometry" />
        </mxCell>
        <mxCell id="jLUfQ_ZdSW11AOpu9WSQ-97" value="Spielbestandteil" style="swimlane;fontStyle=1;align=center;verticalAlign=top;childLayout=stackLayout;horizontal=1;startSize=26;horizontalStack=0;resizeParent=1;resizeParentMax=0;resizeLast=0;collapsible=1;marginBottom=0;whiteSpace=wrap;html=1;" parent="WIyWlLk6GJQsqaUBKTNV-1" vertex="1">
          <mxGeometry x="770" y="1650" width="160" height="78" as="geometry" />
        </mxCell>
        <mxCell id="jLUfQ_ZdSW11AOpu9WSQ-98" value="+titel string&lt;br&gt;+siegpunkte: int" style="text;strokeColor=none;fillColor=none;align=left;verticalAlign=top;spacingLeft=4;spacingRight=4;overflow=hidden;rotatable=0;points=[[0,0.5],[1,0.5]];portConstraint=eastwest;whiteSpace=wrap;html=1;" parent="jLUfQ_ZdSW11AOpu9WSQ-97" vertex="1">
          <mxGeometry y="26" width="160" height="44" as="geometry" />
        </mxCell>
        <mxCell id="jLUfQ_ZdSW11AOpu9WSQ-99" value="" style="line;strokeWidth=1;fillColor=none;align=left;verticalAlign=middle;spacingTop=-1;spacingLeft=3;spacingRight=3;rotatable=0;labelPosition=right;points=[];portConstraint=eastwest;strokeColor=inherit;" parent="jLUfQ_ZdSW11AOpu9WSQ-97" vertex="1">
          <mxGeometry y="70" width="160" height="8" as="geometry" />
        </mxCell>
        <mxCell id="jLUfQ_ZdSW11AOpu9WSQ-102" style="edgeStyle=orthogonalEdgeStyle;rounded=0;orthogonalLoop=1;jettySize=auto;html=1;exitX=0.5;exitY=0;exitDx=0;exitDy=0;endArrow=none;endFill=0;" parent="WIyWlLk6GJQsqaUBKTNV-1" source="jLUfQ_ZdSW11AOpu9WSQ-97" edge="1">
          <mxGeometry relative="1" as="geometry">
            <mxPoint x="1160" y="1505" as="targetPoint" />
            <Array as="points">
              <mxPoint x="850" y="1575" />
              <mxPoint x="1160" y="1575" />
            </Array>
          </mxGeometry>
        </mxCell>
        <mxCell id="jLUfQ_ZdSW11AOpu9WSQ-103" value="2" style="edgeLabel;html=1;align=center;verticalAlign=middle;resizable=0;points=[];" parent="jLUfQ_ZdSW11AOpu9WSQ-102" vertex="1" connectable="0">
          <mxGeometry x="-0.9279" y="-9" relative="1" as="geometry">
            <mxPoint as="offset" />
          </mxGeometry>
        </mxCell>
        <mxCell id="jLUfQ_ZdSW11AOpu9WSQ-118" style="edgeStyle=orthogonalEdgeStyle;rounded=0;orthogonalLoop=1;jettySize=auto;html=1;exitX=0.5;exitY=0;exitDx=0;exitDy=0;" parent="WIyWlLk6GJQsqaUBKTNV-1" source="jLUfQ_ZdSW11AOpu9WSQ-104" edge="1">
          <mxGeometry relative="1" as="geometry">
            <mxPoint x="840" y="1730" as="targetPoint" />
          </mxGeometry>
        </mxCell>
        <mxCell id="jLUfQ_ZdSW11AOpu9WSQ-104" value="Rittermacht" style="swimlane;fontStyle=0;childLayout=stackLayout;horizontal=1;startSize=26;fillColor=none;horizontalStack=0;resizeParent=1;resizeParentMax=0;resizeLast=0;collapsible=1;marginBottom=0;whiteSpace=wrap;html=1;" parent="WIyWlLk6GJQsqaUBKTNV-1" vertex="1">
          <mxGeometry x="580" y="1866" width="160" height="80" as="geometry" />
        </mxCell>
        <mxCell id="jLUfQ_ZdSW11AOpu9WSQ-105" value="+mindestanzahlRitter: int&lt;br&gt;+Siegpunkte: int" style="text;strokeColor=none;fillColor=none;align=left;verticalAlign=top;spacingLeft=4;spacingRight=4;overflow=hidden;rotatable=0;points=[[0,0.5],[1,0.5]];portConstraint=eastwest;whiteSpace=wrap;html=1;" parent="jLUfQ_ZdSW11AOpu9WSQ-104" vertex="1">
          <mxGeometry y="26" width="160" height="54" as="geometry" />
        </mxCell>
        <mxCell id="jLUfQ_ZdSW11AOpu9WSQ-117" style="edgeStyle=orthogonalEdgeStyle;rounded=0;orthogonalLoop=1;jettySize=auto;html=1;exitX=0.25;exitY=0;exitDx=0;exitDy=0;endArrow=none;endFill=0;" parent="WIyWlLk6GJQsqaUBKTNV-1" source="jLUfQ_ZdSW11AOpu9WSQ-109" edge="1">
          <mxGeometry relative="1" as="geometry">
            <mxPoint x="840" y="1790" as="targetPoint" />
            <Array as="points">
              <mxPoint x="840" y="1866" />
            </Array>
          </mxGeometry>
        </mxCell>
        <mxCell id="jLUfQ_ZdSW11AOpu9WSQ-109" value="Handelsstraße" style="swimlane;fontStyle=0;childLayout=stackLayout;horizontal=1;startSize=26;fillColor=none;horizontalStack=0;resizeParent=1;resizeParentMax=0;resizeLast=0;collapsible=1;marginBottom=0;whiteSpace=wrap;html=1;" parent="WIyWlLk6GJQsqaUBKTNV-1" vertex="1">
          <mxGeometry x="800" y="1866" width="140" height="90" as="geometry" />
        </mxCell>
        <mxCell id="jLUfQ_ZdSW11AOpu9WSQ-110" value="+mindestanzahlStraßen: int&lt;br&gt;+siegpunkte: int" style="text;strokeColor=none;fillColor=none;align=left;verticalAlign=top;spacingLeft=4;spacingRight=4;overflow=hidden;rotatable=0;points=[[0,0.5],[1,0.5]];portConstraint=eastwest;whiteSpace=wrap;html=1;" parent="jLUfQ_ZdSW11AOpu9WSQ-109" vertex="1">
          <mxGeometry y="26" width="140" height="64" as="geometry" />
        </mxCell>
        <mxCell id="pc8HrFXufxrGeK1W2qgo-0" value="Spielfeld" style="swimlane;fontStyle=1;align=center;verticalAlign=top;childLayout=stackLayout;horizontal=1;startSize=26;horizontalStack=0;resizeParent=1;resizeParentMax=0;resizeLast=0;collapsible=1;marginBottom=0;whiteSpace=wrap;html=1;" parent="WIyWlLk6GJQsqaUBKTNV-1" vertex="1">
          <mxGeometry x="1290" y="1168" width="160" height="86" as="geometry" />
        </mxCell>
        <mxCell id="pc8HrFXufxrGeK1W2qgo-1" value="+ field: type" style="text;strokeColor=none;fillColor=none;align=left;verticalAlign=top;spacingLeft=4;spacingRight=4;overflow=hidden;rotatable=0;points=[[0,0.5],[1,0.5]];portConstraint=eastwest;whiteSpace=wrap;html=1;" parent="pc8HrFXufxrGeK1W2qgo-0" vertex="1">
          <mxGeometry y="26" width="160" height="26" as="geometry" />
        </mxCell>
        <mxCell id="pc8HrFXufxrGeK1W2qgo-2" value="" style="line;strokeWidth=1;fillColor=none;align=left;verticalAlign=middle;spacingTop=-1;spacingLeft=3;spacingRight=3;rotatable=0;labelPosition=right;points=[];portConstraint=eastwest;strokeColor=inherit;" parent="pc8HrFXufxrGeK1W2qgo-0" vertex="1">
          <mxGeometry y="52" width="160" height="8" as="geometry" />
        </mxCell>
        <mxCell id="pc8HrFXufxrGeK1W2qgo-3" value="+ method(type): type" style="text;strokeColor=none;fillColor=none;align=left;verticalAlign=top;spacingLeft=4;spacingRight=4;overflow=hidden;rotatable=0;points=[[0,0.5],[1,0.5]];portConstraint=eastwest;whiteSpace=wrap;html=1;" parent="pc8HrFXufxrGeK1W2qgo-0" vertex="1">
          <mxGeometry y="60" width="160" height="26" as="geometry" />
        </mxCell>
        <mxCell id="pc8HrFXufxrGeK1W2qgo-9" value="Felder" style="swimlane;fontStyle=1;align=center;verticalAlign=top;childLayout=stackLayout;horizontal=1;startSize=26;horizontalStack=0;resizeParent=1;resizeParentMax=0;resizeLast=0;collapsible=1;marginBottom=0;whiteSpace=wrap;html=1;" parent="WIyWlLk6GJQsqaUBKTNV-1" vertex="1">
          <mxGeometry x="1150" y="950" width="160" height="88" as="geometry" />
        </mxCell>
        <mxCell id="pc8HrFXufxrGeK1W2qgo-10" value="+ typ: Feldtyp&lt;br&gt;+anzahlFelder: int" style="text;strokeColor=none;fillColor=none;align=left;verticalAlign=top;spacingLeft=4;spacingRight=4;overflow=hidden;rotatable=0;points=[[0,0.5],[1,0.5]];portConstraint=eastwest;whiteSpace=wrap;html=1;" parent="pc8HrFXufxrGeK1W2qgo-9" vertex="1">
          <mxGeometry y="26" width="160" height="54" as="geometry" />
        </mxCell>
        <mxCell id="pc8HrFXufxrGeK1W2qgo-11" value="" style="line;strokeWidth=1;fillColor=none;align=left;verticalAlign=middle;spacingTop=-1;spacingLeft=3;spacingRight=3;rotatable=0;labelPosition=right;points=[];portConstraint=eastwest;strokeColor=inherit;" parent="pc8HrFXufxrGeK1W2qgo-9" vertex="1">
          <mxGeometry y="80" width="160" height="8" as="geometry" />
        </mxCell>
        <mxCell id="pc8HrFXufxrGeK1W2qgo-13" value="" style="endArrow=diamondThin;endFill=1;endSize=24;html=1;rounded=0;exitX=0.5;exitY=1;exitDx=0;exitDy=0;entryX=0.113;entryY=0.015;entryDx=0;entryDy=0;entryPerimeter=0;" parent="WIyWlLk6GJQsqaUBKTNV-1" source="pc8HrFXufxrGeK1W2qgo-9" target="pc8HrFXufxrGeK1W2qgo-0" edge="1">
          <mxGeometry width="160" relative="1" as="geometry">
            <mxPoint x="1290" y="1150" as="sourcePoint" />
            <mxPoint x="1310" y="1160" as="targetPoint" />
          </mxGeometry>
        </mxCell>
        <mxCell id="pc8HrFXufxrGeK1W2qgo-14" value="Hafenfeld" style="swimlane;fontStyle=1;align=center;verticalAlign=top;childLayout=stackLayout;horizontal=1;startSize=26;horizontalStack=0;resizeParent=1;resizeParentMax=0;resizeLast=0;collapsible=1;marginBottom=0;whiteSpace=wrap;html=1;" parent="WIyWlLk6GJQsqaUBKTNV-1" vertex="1">
          <mxGeometry x="1331" y="950" width="200" height="60" as="geometry" />
        </mxCell>
        <mxCell id="pc8HrFXufxrGeK1W2qgo-15" value="+tauschverhältnis: tauschverhätlnis" style="text;strokeColor=none;fillColor=none;align=left;verticalAlign=top;spacingLeft=4;spacingRight=4;overflow=hidden;rotatable=0;points=[[0,0.5],[1,0.5]];portConstraint=eastwest;whiteSpace=wrap;html=1;" parent="pc8HrFXufxrGeK1W2qgo-14" vertex="1">
          <mxGeometry y="26" width="200" height="26" as="geometry" />
        </mxCell>
        <mxCell id="pc8HrFXufxrGeK1W2qgo-16" value="" style="line;strokeWidth=1;fillColor=none;align=left;verticalAlign=middle;spacingTop=-1;spacingLeft=3;spacingRight=3;rotatable=0;labelPosition=right;points=[];portConstraint=eastwest;strokeColor=inherit;" parent="pc8HrFXufxrGeK1W2qgo-14" vertex="1">
          <mxGeometry y="52" width="200" height="8" as="geometry" />
        </mxCell>
        <mxCell id="pc8HrFXufxrGeK1W2qgo-18" value="" style="endArrow=diamondThin;endFill=1;endSize=24;html=1;rounded=0;exitX=0.5;exitY=1;exitDx=0;exitDy=0;entryX=0.75;entryY=0;entryDx=0;entryDy=0;" parent="WIyWlLk6GJQsqaUBKTNV-1" source="pc8HrFXufxrGeK1W2qgo-14" target="pc8HrFXufxrGeK1W2qgo-0" edge="1">
          <mxGeometry width="160" relative="1" as="geometry">
            <mxPoint x="1500" y="1150" as="sourcePoint" />
            <mxPoint x="1518" y="1169" as="targetPoint" />
          </mxGeometry>
        </mxCell>
        <mxCell id="pc8HrFXufxrGeK1W2qgo-19" value="Universalhafen" style="swimlane;fontStyle=1;align=center;verticalAlign=top;childLayout=stackLayout;horizontal=1;startSize=26;horizontalStack=0;resizeParent=1;resizeParentMax=0;resizeLast=0;collapsible=1;marginBottom=0;whiteSpace=wrap;html=1;" parent="WIyWlLk6GJQsqaUBKTNV-1" vertex="1">
          <mxGeometry x="1390" y="630" width="160" height="50" as="geometry" />
        </mxCell>
        <mxCell id="pc8HrFXufxrGeK1W2qgo-21" value="" style="line;strokeWidth=1;fillColor=none;align=left;verticalAlign=middle;spacingTop=-1;spacingLeft=3;spacingRight=3;rotatable=0;labelPosition=right;points=[];portConstraint=eastwest;strokeColor=inherit;" parent="pc8HrFXufxrGeK1W2qgo-19" vertex="1">
          <mxGeometry y="26" width="160" height="24" as="geometry" />
        </mxCell>
        <mxCell id="pc8HrFXufxrGeK1W2qgo-30" style="edgeStyle=orthogonalEdgeStyle;rounded=0;orthogonalLoop=1;jettySize=auto;html=1;exitX=1;exitY=0.5;exitDx=0;exitDy=0;entryX=1;entryY=0.5;entryDx=0;entryDy=0;endArrow=none;endFill=0;" parent="WIyWlLk6GJQsqaUBKTNV-1" source="pc8HrFXufxrGeK1W2qgo-23" target="pc8HrFXufxrGeK1W2qgo-3" edge="1">
          <mxGeometry relative="1" as="geometry" />
        </mxCell>
        <mxCell id="pc8HrFXufxrGeK1W2qgo-23" value="Rohstoffhafen" style="swimlane;fontStyle=1;align=center;verticalAlign=top;childLayout=stackLayout;horizontal=1;startSize=26;horizontalStack=0;resizeParent=1;resizeParentMax=0;resizeLast=0;collapsible=1;marginBottom=0;whiteSpace=wrap;html=1;" parent="WIyWlLk6GJQsqaUBKTNV-1" vertex="1">
          <mxGeometry x="1390" y="740" width="160" height="60" as="geometry" />
        </mxCell>
        <mxCell id="pc8HrFXufxrGeK1W2qgo-28" style="edgeStyle=orthogonalEdgeStyle;rounded=0;orthogonalLoop=1;jettySize=auto;html=1;exitX=0;exitY=0.5;exitDx=0;exitDy=0;endArrow=none;endFill=0;" parent="pc8HrFXufxrGeK1W2qgo-23" source="pc8HrFXufxrGeK1W2qgo-24" edge="1">
          <mxGeometry relative="1" as="geometry">
            <mxPoint x="-30" y="39.42857142857133" as="targetPoint" />
          </mxGeometry>
        </mxCell>
        <mxCell id="pc8HrFXufxrGeK1W2qgo-24" value="+ art: Rohstoffkartenart" style="text;strokeColor=none;fillColor=none;align=left;verticalAlign=top;spacingLeft=4;spacingRight=4;overflow=hidden;rotatable=0;points=[[0,0.5],[1,0.5]];portConstraint=eastwest;whiteSpace=wrap;html=1;" parent="pc8HrFXufxrGeK1W2qgo-23" vertex="1">
          <mxGeometry y="26" width="160" height="26" as="geometry" />
        </mxCell>
        <mxCell id="pc8HrFXufxrGeK1W2qgo-25" value="" style="line;strokeWidth=1;fillColor=none;align=left;verticalAlign=middle;spacingTop=-1;spacingLeft=3;spacingRight=3;rotatable=0;labelPosition=right;points=[];portConstraint=eastwest;strokeColor=inherit;" parent="pc8HrFXufxrGeK1W2qgo-23" vertex="1">
          <mxGeometry y="52" width="160" height="8" as="geometry" />
        </mxCell>
        <mxCell id="pc8HrFXufxrGeK1W2qgo-27" style="edgeStyle=orthogonalEdgeStyle;rounded=0;orthogonalLoop=1;jettySize=auto;html=1;exitX=0;exitY=0.5;exitDx=0;exitDy=0;" parent="WIyWlLk6GJQsqaUBKTNV-1" source="pc8HrFXufxrGeK1W2qgo-19" edge="1">
          <mxGeometry relative="1" as="geometry">
            <mxPoint x="1360" y="950" as="targetPoint" />
            <Array as="points">
              <mxPoint x="1360" y="673" />
            </Array>
          </mxGeometry>
        </mxCell>
        <mxCell id="pc8HrFXufxrGeK1W2qgo-29" style="edgeStyle=orthogonalEdgeStyle;rounded=0;orthogonalLoop=1;jettySize=auto;html=1;exitX=1;exitY=0.5;exitDx=0;exitDy=0;entryX=1;entryY=0.25;entryDx=0;entryDy=0;endArrow=none;endFill=0;" parent="WIyWlLk6GJQsqaUBKTNV-1" target="pc8HrFXufxrGeK1W2qgo-0" edge="1">
          <mxGeometry relative="1" as="geometry">
            <Array as="points">
              <mxPoint x="1600" y="669" />
              <mxPoint x="1600" y="1189" />
            </Array>
            <mxPoint x="1550" y="668.9999999999998" as="sourcePoint" />
          </mxGeometry>
        </mxCell>
        <mxCell id="pc8HrFXufxrGeK1W2qgo-31" value="5" style="text;html=1;align=center;verticalAlign=middle;resizable=0;points=[];autosize=1;strokeColor=none;fillColor=none;" parent="WIyWlLk6GJQsqaUBKTNV-1" vertex="1">
          <mxGeometry x="1545" y="770" width="30" height="30" as="geometry" />
        </mxCell>
        <mxCell id="pc8HrFXufxrGeK1W2qgo-32" value="4" style="text;html=1;align=center;verticalAlign=middle;resizable=0;points=[];autosize=1;strokeColor=none;fillColor=none;" parent="WIyWlLk6GJQsqaUBKTNV-1" vertex="1">
          <mxGeometry x="1545" y="640" width="30" height="30" as="geometry" />
        </mxCell>
        <mxCell id="pc8HrFXufxrGeK1W2qgo-33" value="&lt;p style=&quot;margin:0px;margin-top:4px;text-align:center;&quot;&gt;&lt;i&gt;&amp;lt;&amp;lt;enumeration&amp;gt;&amp;gt;&lt;/i&gt;&lt;br&gt;&lt;/p&gt;&lt;p style=&quot;margin:0px;margin-top:4px;text-align:center;&quot;&gt;&lt;i&gt;Feldtyp&lt;/i&gt;&lt;/p&gt;&lt;hr size=&quot;1&quot;&gt;&lt;p style=&quot;margin:0px;margin-left:4px;&quot;&gt;Wüste&lt;/p&gt;&lt;p style=&quot;margin:0px;margin-left:4px;&quot;&gt;Gebirge&lt;/p&gt;&lt;p style=&quot;margin:0px;margin-left:4px;&quot;&gt;Hügelland&lt;/p&gt;&lt;p style=&quot;margin:0px;margin-left:4px;&quot;&gt;Weideland&lt;/p&gt;&lt;p style=&quot;margin:0px;margin-left:4px;&quot;&gt;Ackerland&lt;/p&gt;&lt;p style=&quot;margin:0px;margin-left:4px;&quot;&gt;Wald&lt;/p&gt;&lt;p style=&quot;margin:0px;margin-left:4px;&quot;&gt;&lt;br&gt;&lt;/p&gt;&lt;p style=&quot;margin:0px;margin-left:4px;&quot;&gt;&lt;br&gt;&lt;/p&gt;" style="verticalAlign=top;align=left;overflow=fill;fontSize=12;fontFamily=Helvetica;html=1;whiteSpace=wrap;" parent="WIyWlLk6GJQsqaUBKTNV-1" vertex="1">
          <mxGeometry x="870" y="750" width="190" height="140" as="geometry" />
        </mxCell>
        <mxCell id="pc8HrFXufxrGeK1W2qgo-34" value="Augenzahlenkarte" style="swimlane;fontStyle=1;align=center;verticalAlign=top;childLayout=stackLayout;horizontal=1;startSize=26;horizontalStack=0;resizeParent=1;resizeParentMax=0;resizeLast=0;collapsible=1;marginBottom=0;whiteSpace=wrap;html=1;" parent="WIyWlLk6GJQsqaUBKTNV-1" vertex="1">
          <mxGeometry x="1000" y="1160" width="160" height="60" as="geometry" />
        </mxCell>
        <mxCell id="pc8HrFXufxrGeK1W2qgo-35" value="+ augenzahl:int" style="text;strokeColor=none;fillColor=none;align=left;verticalAlign=top;spacingLeft=4;spacingRight=4;overflow=hidden;rotatable=0;points=[[0,0.5],[1,0.5]];portConstraint=eastwest;whiteSpace=wrap;html=1;" parent="pc8HrFXufxrGeK1W2qgo-34" vertex="1">
          <mxGeometry y="26" width="160" height="26" as="geometry" />
        </mxCell>
        <mxCell id="pc8HrFXufxrGeK1W2qgo-36" value="" style="line;strokeWidth=1;fillColor=none;align=left;verticalAlign=middle;spacingTop=-1;spacingLeft=3;spacingRight=3;rotatable=0;labelPosition=right;points=[];portConstraint=eastwest;strokeColor=inherit;" parent="pc8HrFXufxrGeK1W2qgo-34" vertex="1">
          <mxGeometry y="52" width="160" height="8" as="geometry" />
        </mxCell>
        <mxCell id="pc8HrFXufxrGeK1W2qgo-38" style="edgeStyle=orthogonalEdgeStyle;rounded=0;orthogonalLoop=1;jettySize=auto;html=1;exitX=0.5;exitY=0;exitDx=0;exitDy=0;entryX=-0.025;entryY=-0.084;entryDx=0;entryDy=0;entryPerimeter=0;endArrow=none;endFill=0;" parent="WIyWlLk6GJQsqaUBKTNV-1" source="pc8HrFXufxrGeK1W2qgo-34" target="pc8HrFXufxrGeK1W2qgo-10" edge="1">
          <mxGeometry relative="1" as="geometry" />
        </mxCell>
        <mxCell id="pc8HrFXufxrGeK1W2qgo-39" style="edgeStyle=orthogonalEdgeStyle;rounded=0;orthogonalLoop=1;jettySize=auto;html=1;exitX=0;exitY=0.5;exitDx=0;exitDy=0;entryX=1;entryY=0.5;entryDx=0;entryDy=0;endArrow=none;endFill=0;" parent="WIyWlLk6GJQsqaUBKTNV-1" source="pc8HrFXufxrGeK1W2qgo-1" target="pc8HrFXufxrGeK1W2qgo-35" edge="1">
          <mxGeometry relative="1" as="geometry" />
        </mxCell>
        <mxCell id="pc8HrFXufxrGeK1W2qgo-41" value="18" style="edgeLabel;html=1;align=center;verticalAlign=middle;resizable=0;points=[];" parent="pc8HrFXufxrGeK1W2qgo-39" vertex="1" connectable="0">
          <mxGeometry x="0.5891" y="-10" relative="1" as="geometry">
            <mxPoint x="-19" y="-3" as="offset" />
          </mxGeometry>
        </mxCell>
        <mxCell id="pc8HrFXufxrGeK1W2qgo-42" value="0...1" style="text;html=1;align=center;verticalAlign=middle;resizable=0;points=[];autosize=1;strokeColor=none;fillColor=none;" parent="WIyWlLk6GJQsqaUBKTNV-1" vertex="1">
          <mxGeometry x="1070" y="1138" width="50" height="30" as="geometry" />
        </mxCell>
        <mxCell id="pc8HrFXufxrGeK1W2qgo-43" value="1" style="text;html=1;align=center;verticalAlign=middle;resizable=0;points=[];autosize=1;strokeColor=none;fillColor=none;" parent="WIyWlLk6GJQsqaUBKTNV-1" vertex="1">
          <mxGeometry x="1115" y="948" width="30" height="30" as="geometry" />
        </mxCell>
        <mxCell id="-h1EHQiqOP35WWRG1Ztw-0" value="&lt;p style=&quot;margin:0px;margin-top:4px;text-align:center;&quot;&gt;&lt;i&gt;&amp;lt;&amp;lt;enumeration&amp;gt;&amp;gt;&lt;/i&gt;&lt;br&gt;&lt;/p&gt;&lt;p style=&quot;margin:0px;margin-top:4px;text-align:center;&quot;&gt;&lt;i&gt;Spielfigur&lt;/i&gt;&lt;/p&gt;&lt;hr size=&quot;1&quot;&gt;&lt;p style=&quot;margin:0px;margin-left:4px;&quot;&gt;Räuber&lt;/p&gt;&lt;p style=&quot;margin:0px;margin-left:4px;&quot;&gt;Straße&lt;/p&gt;&lt;p style=&quot;margin:0px;margin-left:4px;&quot;&gt;Siedlung&amp;nbsp;&lt;/p&gt;&lt;p style=&quot;margin:0px;margin-left:4px;&quot;&gt;Stadt&lt;/p&gt;&lt;p style=&quot;margin:0px;margin-left:4px;&quot;&gt;&lt;br&gt;&lt;/p&gt;&lt;p style=&quot;margin:0px;margin-left:4px;&quot;&gt;&lt;br&gt;&lt;/p&gt;" style="verticalAlign=top;align=left;overflow=fill;fontSize=12;fontFamily=Helvetica;html=1;whiteSpace=wrap;" parent="WIyWlLk6GJQsqaUBKTNV-1" vertex="1">
          <mxGeometry x="400" y="1440" width="190" height="140" as="geometry" />
        </mxCell>
        <mxCell id="-h1EHQiqOP35WWRG1Ztw-1" value="&lt;p style=&quot;margin:0px;margin-top:4px;text-align:center;&quot;&gt;&lt;i&gt;&amp;lt;&amp;lt;enumeration&amp;gt;&amp;gt;&lt;/i&gt;&lt;br&gt;&lt;/p&gt;&lt;p style=&quot;margin:0px;margin-top:4px;text-align:center;&quot;&gt;&lt;i&gt;Entwicklungskartenart&lt;/i&gt;&lt;/p&gt;&lt;hr size=&quot;1&quot;&gt;&lt;p style=&quot;margin:0px;margin-left:4px;&quot;&gt;Fortschritt&lt;/p&gt;&lt;p style=&quot;margin:0px;margin-left:4px;&quot;&gt;Siegpunkt&lt;/p&gt;&lt;p style=&quot;margin:0px;margin-left:4px;&quot;&gt;Ritterkarte&lt;/p&gt;&lt;p style=&quot;margin:0px;margin-left:4px;&quot;&gt;&lt;br&gt;&lt;/p&gt;&lt;p style=&quot;margin:0px;margin-left:4px;&quot;&gt;&lt;br&gt;&lt;/p&gt;" style="verticalAlign=top;align=left;overflow=fill;fontSize=12;fontFamily=Helvetica;html=1;whiteSpace=wrap;" parent="WIyWlLk6GJQsqaUBKTNV-1" vertex="1">
          <mxGeometry x="1075" y="1970" width="190" height="110" as="geometry" />
        </mxCell>
        <mxCell id="-h1EHQiqOP35WWRG1Ztw-2" value="&lt;p style=&quot;margin:0px;margin-top:4px;text-align:center;&quot;&gt;&lt;i&gt;&amp;lt;&amp;lt;enumeration&amp;gt;&amp;gt;&lt;/i&gt;&lt;/p&gt;&lt;p style=&quot;margin:0px;margin-top:4px;text-align:center;&quot;&gt;&lt;i&gt;Rohstoffkartenart&lt;/i&gt;&lt;/p&gt;&lt;hr size=&quot;1&quot;&gt;&lt;p style=&quot;margin:0px;margin-left:4px;&quot;&gt;Erz&lt;/p&gt;&lt;p style=&quot;margin:0px;margin-left:4px;&quot;&gt;Holz&lt;/p&gt;&lt;p style=&quot;margin:0px;margin-left:4px;&quot;&gt;Wolle&lt;/p&gt;&lt;p style=&quot;margin:0px;margin-left:4px;&quot;&gt;Lehm&amp;nbsp;&lt;/p&gt;&lt;p style=&quot;margin:0px;margin-left:4px;&quot;&gt;Getreide&lt;/p&gt;&lt;p style=&quot;margin:0px;margin-left:4px;&quot;&gt;&lt;br&gt;&lt;/p&gt;&lt;p style=&quot;margin:0px;margin-left:4px;&quot;&gt;&lt;br&gt;&lt;/p&gt;" style="verticalAlign=top;align=left;overflow=fill;fontSize=12;fontFamily=Helvetica;html=1;whiteSpace=wrap;" parent="WIyWlLk6GJQsqaUBKTNV-1" vertex="1">
          <mxGeometry x="1375" y="1960" width="190" height="130" as="geometry" />
        </mxCell>
        <mxCell id="-h1EHQiqOP35WWRG1Ztw-3" value="25" style="text;html=1;align=center;verticalAlign=middle;resizable=0;points=[];autosize=1;strokeColor=none;fillColor=none;" parent="WIyWlLk6GJQsqaUBKTNV-1" vertex="1">
          <mxGeometry x="1070" y="1784" width="40" height="30" as="geometry" />
        </mxCell>
        <mxCell id="-h1EHQiqOP35WWRG1Ztw-4" value="95" style="text;html=1;align=center;verticalAlign=middle;resizable=0;points=[];autosize=1;strokeColor=none;fillColor=none;" parent="WIyWlLk6GJQsqaUBKTNV-1" vertex="1">
          <mxGeometry x="1420" y="1784" width="40" height="30" as="geometry" />
        </mxCell>
        <mxCell id="-h1EHQiqOP35WWRG1Ztw-6" value="Regelwerk" style="swimlane;fontStyle=0;childLayout=stackLayout;horizontal=1;startSize=26;fillColor=none;horizontalStack=0;resizeParent=1;resizeParentMax=0;resizeLast=0;collapsible=1;marginBottom=0;whiteSpace=wrap;html=1;" parent="WIyWlLk6GJQsqaUBKTNV-1" vertex="1">
          <mxGeometry x="1450" y="1389" width="140" height="52" as="geometry" />
        </mxCell>
        <mxCell id="-h1EHQiqOP35WWRG1Ztw-7" value="+ anzahlSpielpunkte: int" style="text;strokeColor=none;fillColor=none;align=left;verticalAlign=top;spacingLeft=4;spacingRight=4;overflow=hidden;rotatable=0;points=[[0,0.5],[1,0.5]];portConstraint=eastwest;whiteSpace=wrap;html=1;" parent="-h1EHQiqOP35WWRG1Ztw-6" vertex="1">
          <mxGeometry y="26" width="140" height="26" as="geometry" />
        </mxCell>
        <mxCell id="-h1EHQiqOP35WWRG1Ztw-10" style="edgeStyle=orthogonalEdgeStyle;rounded=0;orthogonalLoop=1;jettySize=auto;html=1;exitX=0;exitY=0.5;exitDx=0;exitDy=0;entryX=1;entryY=0.25;entryDx=0;entryDy=0;endArrow=none;endFill=0;" parent="WIyWlLk6GJQsqaUBKTNV-1" source="-h1EHQiqOP35WWRG1Ztw-7" target="jLUfQ_ZdSW11AOpu9WSQ-18" edge="1">
          <mxGeometry relative="1" as="geometry">
            <Array as="points">
              <mxPoint x="1450" y="1418" />
            </Array>
          </mxGeometry>
        </mxCell>
        <mxCell id="-h1EHQiqOP35WWRG1Ztw-13" style="edgeStyle=orthogonalEdgeStyle;rounded=0;orthogonalLoop=1;jettySize=auto;html=1;exitX=0.75;exitY=0;exitDx=0;exitDy=0;entryX=0.306;entryY=1.069;entryDx=0;entryDy=0;entryPerimeter=0;" parent="WIyWlLk6GJQsqaUBKTNV-1" source="jLUfQ_ZdSW11AOpu9WSQ-4" target="jLUfQ_ZdSW11AOpu9WSQ-2" edge="1">
          <mxGeometry relative="1" as="geometry" />
        </mxCell>
        <mxCell id="-h1EHQiqOP35WWRG1Ztw-15" value="1" style="text;html=1;align=center;verticalAlign=middle;resizable=0;points=[];autosize=1;strokeColor=none;fillColor=none;" parent="WIyWlLk6GJQsqaUBKTNV-1" vertex="1">
          <mxGeometry x="1425" y="1388" width="30" height="30" as="geometry" />
        </mxCell>
        <mxCell id="-h1EHQiqOP35WWRG1Ztw-16" value="1" style="text;html=1;align=center;verticalAlign=middle;resizable=0;points=[];autosize=1;strokeColor=none;fillColor=none;" parent="WIyWlLk6GJQsqaUBKTNV-1" vertex="1">
          <mxGeometry x="835" y="1838" width="30" height="30" as="geometry" />
        </mxCell>
        <mxCell id="-h1EHQiqOP35WWRG1Ztw-17" value="1" style="text;html=1;align=center;verticalAlign=middle;resizable=0;points=[];autosize=1;strokeColor=none;fillColor=none;" parent="WIyWlLk6GJQsqaUBKTNV-1" vertex="1">
          <mxGeometry x="655" y="1838" width="30" height="30" as="geometry" />
        </mxCell>
        <mxCell id="-h1EHQiqOP35WWRG1Ztw-18" style="edgeStyle=orthogonalEdgeStyle;rounded=0;orthogonalLoop=1;jettySize=auto;html=1;exitX=1;exitY=0.5;exitDx=0;exitDy=0;entryX=0.017;entryY=0.131;entryDx=0;entryDy=0;entryPerimeter=0;endArrow=none;endFill=0;" parent="WIyWlLk6GJQsqaUBKTNV-1" source="jLUfQ_ZdSW11AOpu9WSQ-68" target="jLUfQ_ZdSW11AOpu9WSQ-18" edge="1">
          <mxGeometry relative="1" as="geometry" />
        </mxCell>
        <mxCell id="-h1EHQiqOP35WWRG1Ztw-19" value="Spieler" style="swimlane;fontStyle=0;childLayout=stackLayout;horizontal=1;startSize=26;fillColor=none;horizontalStack=0;resizeParent=1;resizeParentMax=0;resizeLast=0;collapsible=1;marginBottom=0;whiteSpace=wrap;html=1;" parent="WIyWlLk6GJQsqaUBKTNV-1" vertex="1">
          <mxGeometry x="800" y="1254" width="140" height="80" as="geometry" />
        </mxCell>
        <mxCell id="-h1EHQiqOP35WWRG1Ztw-20" value="+farbe: farbe&lt;br&gt;+siegpunkte: int&lt;br&gt;" style="text;strokeColor=none;fillColor=none;align=left;verticalAlign=top;spacingLeft=4;spacingRight=4;overflow=hidden;rotatable=0;points=[[0,0.5],[1,0.5]];portConstraint=eastwest;whiteSpace=wrap;html=1;" parent="-h1EHQiqOP35WWRG1Ztw-19" vertex="1">
          <mxGeometry y="26" width="140" height="54" as="geometry" />
        </mxCell>
        <mxCell id="-h1EHQiqOP35WWRG1Ztw-23" style="edgeStyle=orthogonalEdgeStyle;rounded=0;orthogonalLoop=1;jettySize=auto;html=1;exitX=1;exitY=0.5;exitDx=0;exitDy=0;entryX=0.25;entryY=0;entryDx=0;entryDy=0;endArrow=none;endFill=0;" parent="WIyWlLk6GJQsqaUBKTNV-1" source="-h1EHQiqOP35WWRG1Ztw-20" target="jLUfQ_ZdSW11AOpu9WSQ-18" edge="1">
          <mxGeometry relative="1" as="geometry" />
        </mxCell>
        <mxCell id="-h1EHQiqOP35WWRG1Ztw-25" value="97" style="text;html=1;align=center;verticalAlign=middle;resizable=0;points=[];autosize=1;strokeColor=none;fillColor=none;" parent="WIyWlLk6GJQsqaUBKTNV-1" vertex="1">
          <mxGeometry x="825" y="1460" width="40" height="30" as="geometry" />
        </mxCell>
        <mxCell id="-h1EHQiqOP35WWRG1Ztw-27" value="1" style="text;html=1;align=center;verticalAlign=middle;resizable=0;points=[];autosize=1;strokeColor=none;fillColor=none;" parent="WIyWlLk6GJQsqaUBKTNV-1" vertex="1">
          <mxGeometry x="770" y="1279" width="30" height="30" as="geometry" />
        </mxCell>
        <mxCell id="-h1EHQiqOP35WWRG1Ztw-29" value="3..4" style="text;html=1;align=center;verticalAlign=middle;resizable=0;points=[];autosize=1;strokeColor=none;fillColor=none;" parent="WIyWlLk6GJQsqaUBKTNV-1" vertex="1">
          <mxGeometry x="940" y="1279" width="40" height="30" as="geometry" />
        </mxCell>
        <mxCell id="-h1EHQiqOP35WWRG1Ztw-31" value="1" style="text;html=1;align=center;verticalAlign=middle;resizable=0;points=[];autosize=1;strokeColor=none;fillColor=none;" parent="WIyWlLk6GJQsqaUBKTNV-1" vertex="1">
          <mxGeometry x="1265" y="1178" width="30" height="30" as="geometry" />
        </mxCell>
        <mxCell id="-h1EHQiqOP35WWRG1Ztw-33" value="0..3" style="text;html=1;align=center;verticalAlign=middle;resizable=0;points=[];autosize=1;strokeColor=none;fillColor=none;" parent="WIyWlLk6GJQsqaUBKTNV-1" vertex="1">
          <mxGeometry x="1190" y="920" width="40" height="30" as="geometry" />
        </mxCell>
        <mxCell id="-h1EHQiqOP35WWRG1Ztw-34" value="120" style="text;html=1;align=center;verticalAlign=middle;resizable=0;points=[];autosize=1;strokeColor=none;fillColor=none;" parent="WIyWlLk6GJQsqaUBKTNV-1" vertex="1">
          <mxGeometry x="1220" y="1638" width="40" height="30" as="geometry" />
        </mxCell>
        <mxCell id="-h1EHQiqOP35WWRG1Ztw-35" value="1" style="text;html=1;align=center;verticalAlign=middle;resizable=0;points=[];autosize=1;strokeColor=none;fillColor=none;" parent="WIyWlLk6GJQsqaUBKTNV-1" vertex="1">
          <mxGeometry x="1455" y="1158" width="30" height="30" as="geometry" />
        </mxCell>
        <mxCell id="-h1EHQiqOP35WWRG1Ztw-37" value="1" style="text;html=1;align=center;verticalAlign=middle;resizable=0;points=[];autosize=1;strokeColor=none;fillColor=none;" parent="WIyWlLk6GJQsqaUBKTNV-1" vertex="1">
          <mxGeometry x="1455" y="1208" width="30" height="30" as="geometry" />
        </mxCell>
        <mxCell id="-h1EHQiqOP35WWRG1Ztw-39" value="&lt;p style=&quot;margin:0px;margin-top:4px;text-align:center;&quot;&gt;&lt;i&gt;&amp;lt;&amp;lt;enumeration&amp;gt;&amp;gt;&lt;/i&gt;&lt;br&gt;&lt;/p&gt;&lt;p style=&quot;margin:0px;margin-top:4px;text-align:center;&quot;&gt;&lt;i&gt;tauschverhältnis&lt;/i&gt;&lt;/p&gt;&lt;hr size=&quot;1&quot;&gt;&lt;p style=&quot;margin:0px;margin-left:4px;&quot;&gt;3:1&lt;/p&gt;&lt;p style=&quot;margin:0px;margin-left:4px;&quot;&gt;2:1&lt;/p&gt;&lt;p style=&quot;margin:0px;margin-left:4px;&quot;&gt;&lt;br&gt;&lt;/p&gt;&lt;p style=&quot;margin:0px;margin-left:4px;&quot;&gt;&lt;br&gt;&lt;/p&gt;" style="verticalAlign=top;align=left;overflow=fill;fontSize=12;fontFamily=Helvetica;html=1;whiteSpace=wrap;" parent="WIyWlLk6GJQsqaUBKTNV-1" vertex="1">
          <mxGeometry x="1130" y="800" width="190" height="90" as="geometry" />
        </mxCell>
        <mxCell id="-h1EHQiqOP35WWRG1Ztw-42" value="24" style="text;html=1;align=center;verticalAlign=middle;resizable=0;points=[];autosize=1;strokeColor=none;fillColor=none;" parent="WIyWlLk6GJQsqaUBKTNV-1" vertex="1">
          <mxGeometry x="680" y="1408" width="40" height="30" as="geometry" />
        </mxCell>
        <mxCell id="-h1EHQiqOP35WWRG1Ztw-43" value="0...10" style="text;html=1;align=center;verticalAlign=middle;resizable=0;points=[];autosize=1;strokeColor=none;fillColor=none;" parent="WIyWlLk6GJQsqaUBKTNV-1" vertex="1">
          <mxGeometry x="625" y="1408" width="50" height="30" as="geometry" />
        </mxCell>
        <mxCell id="4GnOWeXe9yP3JWXDy1YX-2" style="edgeStyle=orthogonalEdgeStyle;rounded=0;orthogonalLoop=1;jettySize=auto;html=1;exitX=0.25;exitY=0;exitDx=0;exitDy=0;entryX=0.537;entryY=1.041;entryDx=0;entryDy=0;entryPerimeter=0;endArrow=none;endFill=0;" edge="1" parent="WIyWlLk6GJQsqaUBKTNV-1" source="jLUfQ_ZdSW11AOpu9WSQ-4" target="-h1EHQiqOP35WWRG1Ztw-20">
          <mxGeometry relative="1" as="geometry">
            <Array as="points">
              <mxPoint x="1030" y="1370" />
              <mxPoint x="875" y="1370" />
            </Array>
          </mxGeometry>
        </mxCell>
        <mxCell id="4GnOWeXe9yP3JWXDy1YX-4" value="0...25" style="text;html=1;align=center;verticalAlign=middle;resizable=0;points=[];autosize=1;strokeColor=none;fillColor=none;" vertex="1" parent="WIyWlLk6GJQsqaUBKTNV-1">
          <mxGeometry x="990" y="1784" width="50" height="30" as="geometry" />
        </mxCell>
        <mxCell id="4GnOWeXe9yP3JWXDy1YX-5" value="0...1" style="text;html=1;align=center;verticalAlign=middle;resizable=0;points=[];autosize=1;strokeColor=none;fillColor=none;" vertex="1" parent="WIyWlLk6GJQsqaUBKTNV-1">
          <mxGeometry x="830" y="1340" width="50" height="30" as="geometry" />
        </mxCell>
        <mxCell id="4GnOWeXe9yP3JWXDy1YX-8" value="0...95" style="text;html=1;align=center;verticalAlign=middle;resizable=0;points=[];autosize=1;strokeColor=none;fillColor=none;" vertex="1" parent="WIyWlLk6GJQsqaUBKTNV-1">
          <mxGeometry x="1405" y="1868" width="50" height="30" as="geometry" />
        </mxCell>
      </root>
    </mxGraphModel>
  </diagram>
</mxfile>
